<?xml version="1.0" standalone="no"?>
<!DOCTYPE svg PUBLIC "-//W3C//DTD SVG 20010904//EN"
 "http://www.w3.org/TR/2001/REC-SVG-20010904/DTD/svg10.dtd">
<svg version="1.0" xmlns="http://www.w3.org/2000/svg"
 width="2028.000000pt" height="2028.000000pt" viewBox="0 0 2028.000000 2028.000000"
 preserveAspectRatio="xMidYMid meet">
<metadata>
Created by potrace 1.11, written by Peter Selinger 2001-2013
</metadata>
<g transform="translate(0.000000,2028.000000) scale(0.100000,-0.100000)"
fill="#000000" stroke="none">
<path d="M10230 19154 c0 -23 -70 -37 -187 -38 -40 -1 -73 -5 -73 -9 0 -5 -5
-5 -10 -2 -6 3 -13 -1 -16 -9 -3 -9 -10 -14 -14 -11 -5 3 -19 1 -33 -4 -16 -6
-28 -6 -35 1 -8 8 -13 7 -18 -6 -5 -12 -10 -14 -19 -6 -10 8 -16 7 -22 -4 -4
-8 -12 -15 -18 -15 -5 0 -11 -5 -13 -13 -3 -10 -2 -10 5 -1 7 10 13 10 28 -1
17 -12 15 -13 -22 -11 -22 1 -46 6 -53 10 -9 5 -11 4 -6 -4 6 -8 -2 -11 -28
-8 -19 2 -33 0 -30 -4 5 -9 -25 -14 -55 -10 -7 2 -10 -2 -6 -9 6 -9 2 -9 -13
-1 -12 6 -23 7 -26 2 -6 -8 -137 -44 -163 -44 -7 0 -13 -4 -13 -9 0 -4 -6 -8
-13 -8 -7 0 -30 -9 -52 -20 -22 -11 -45 -20 -52 -20 -7 0 -13 -4 -13 -9 0 -5
-11 -8 -25 -7 -13 2 -22 0 -20 -5 4 -6 -69 -24 -77 -19 -2 1 -16 -4 -33 -10
-44 -17 -129 -39 -134 -34 -2 2 1 4 7 4 7 0 12 9 12 20 0 18 -3 18 -27 7 -16
-6 -31 -15 -34 -20 -3 -4 -23 -11 -45 -14 -21 -4 -45 -13 -53 -20 -8 -8 -22
-12 -32 -10 -10 3 -20 -2 -23 -10 -4 -9 -13 -13 -22 -9 -8 3 -12 2 -9 -3 5
-10 -15 -19 -61 -27 -15 -3 -40 -12 -55 -20 -16 -8 -31 -14 -34 -14 -38 1 -44
-1 -38 -17 4 -11 3 -14 -5 -9 -7 4 -12 2 -12 -4 0 -6 -12 -16 -27 -23 -16 -6
-31 -15 -34 -20 -6 -8 -45 -18 -89 -22 -14 -1 -24 -7 -22 -14 1 -8 -2 -10 -10
-5 -22 14 -39 13 -45 -2 -3 -8 -9 -11 -14 -8 -5 3 -9 0 -9 -6 0 -6 -4 -8 -10
-5 -5 3 -10 2 -10 -4 0 -10 -33 -24 -60 -26 -8 0 -24 6 -34 15 -11 8 -17 11
-14 5 4 -6 -8 -11 -25 -12 -73 -4 -97 -9 -97 -17 0 -5 -3 -7 -6 -3 -3 3 -22 0
-42 -7 -21 -7 -49 -12 -64 -11 -15 0 -24 -3 -21 -8 3 -5 -4 -6 -16 -2 -12 4
-54 1 -94 -6 -40 -7 -75 -12 -79 -11 -5 1 -8 -4 -8 -11 0 -10 14 -13 53 -11
71 4 136 12 150 20 7 3 -1 -6 -18 -20 -16 -15 -43 -34 -60 -43 -34 -18 -114
-25 -132 -10 -7 5 -13 5 -13 1 0 -5 -34 -9 -75 -10 -54 0 -76 3 -79 13 -3 8
-2 12 2 9 13 -8 100 15 113 30 9 11 7 14 -12 15 -38 2 -51 0 -107 -18 -42 -14
-51 -21 -46 -35 3 -10 0 -18 -6 -18 -6 0 -8 5 -5 10 9 14 -23 24 -38 12 -6 -5
-19 -10 -27 -10 -8 -1 -46 -3 -85 -6 -119 -7 -180 -16 -183 -26 -2 -6 -8 -8
-13 -5 -5 4 -6 -1 -3 -9 3 -9 14 -13 29 -10 19 3 23 0 22 -17 -1 -14 -7 -19
-19 -16 -11 3 -15 1 -11 -5 4 -8 -5 -9 -28 -5 -19 3 -28 3 -21 0 6 -2 12 -9
12 -15 0 -5 -6 -8 -12 -5 -15 5 -72 -22 -64 -30 3 -4 0 -13 -7 -22 -10 -14
-10 -14 5 -3 9 8 22 11 28 7 5 -3 10 -1 10 5 0 6 5 8 10 5 6 -3 10 -2 10 4 0
5 9 9 19 8 11 0 18 -4 15 -8 -2 -4 0 -10 6 -14 5 -3 10 -1 10 6 0 7 3 9 7 6
10 -11 -27 -46 -43 -40 -9 3 -12 0 -9 -9 8 -20 -48 -68 -72 -62 -11 3 -25 -2
-32 -10 -9 -11 -10 -16 -2 -16 6 0 11 6 11 13 0 9 3 8 9 -2 5 -8 14 -10 22 -5
12 6 12 5 0 -9 -7 -9 -11 -17 -7 -17 3 0 -6 -14 -21 -30 -17 -19 -29 -26 -33
-19 -5 7 -9 6 -13 -4 -3 -8 0 -20 6 -27 10 -10 7 -10 -13 -1 l-25 12 23 -20
c15 -13 19 -22 11 -27 -6 -3 -15 0 -20 7 -7 11 -9 10 -9 -3 0 -10 -5 -18 -11
-18 -6 0 -9 -6 -6 -13 3 -7 -3 -23 -12 -35 l-17 -23 -24 23 c-14 13 -29 22
-35 20 -5 -2 -1 6 9 17 14 16 16 21 5 21 -11 0 -11 2 1 10 12 8 12 10 1 10 -9
0 -5 11 13 34 21 28 22 34 8 31 -9 -2 -21 -4 -25 -4 -5 -1 -5 -11 -2 -22 6
-16 4 -20 -6 -14 -8 5 -11 5 -7 0 4 -4 0 -22 -9 -39 -9 -17 -18 -53 -19 -80
-3 -55 -5 -59 -27 -50 -11 4 -14 12 -8 27 4 12 7 34 6 50 -1 15 3 27 9 27 6 0
2 7 -8 15 -18 13 -18 15 -3 15 15 0 16 2 5 14 -15 16 -20 8 -33 -53 -5 -23 -4
-31 4 -27 15 10 14 -9 -1 -26 -7 -7 -15 -22 -16 -33 -2 -11 -8 -22 -13 -23 -5
-2 -7 -8 -3 -13 3 -5 1 -9 -5 -9 -5 0 -11 5 -13 12 -3 7 -11 9 -24 4 -18 -8
-18 -9 -1 -15 17 -6 17 -8 -1 -29 -22 -25 -32 -28 -32 -9 0 8 -9 13 -22 12
-13 -1 -35 6 -50 16 -14 11 -33 19 -42 19 -9 0 -34 9 -54 19 -21 11 -64 24
-95 30 -32 6 -63 14 -69 17 -7 5 -8 2 -3 -5 5 -10 3 -11 -11 -4 -27 13 -101 7
-116 -9 -18 -18 -38 -58 -43 -86 -2 -12 -6 -26 -10 -31 -3 -5 0 -13 6 -16 5
-4 8 -13 5 -20 -2 -7 2 -21 9 -32 8 -10 15 -26 15 -36 0 -19 20 -58 35 -69 15
-11 -23 -10 -45 2 -13 7 -21 6 -29 -4 -8 -10 -4 -19 19 -39 16 -15 37 -27 45
-27 8 0 15 -7 15 -16 0 -8 -4 -13 -9 -10 -9 6 -29 -13 -30 -29 -1 -5 -7 -10
-13 -11 -22 -1 -29 7 -18 21 9 11 7 12 -11 8 -17 -5 -20 -3 -14 8 7 12 6 12
-7 1 -12 -10 -18 -9 -28 3 -8 9 -21 13 -34 10 -15 -5 -17 -4 -8 3 11 8 11 10
-2 15 -9 4 -17 -1 -21 -14 -4 -11 -11 -16 -18 -13 -7 4 -2 -4 9 -17 28 -31 22
-51 -11 -39 -16 6 -27 6 -31 -2 -4 -7 -3 -8 4 -4 7 4 12 2 12 -3 0 -6 -10 -9
-22 -7 -12 1 -28 -3 -35 -10 -15 -15 -17 -28 -3 -19 5 3 7 0 4 -8 -3 -8 0 -18
5 -22 6 -3 9 -11 5 -16 -3 -6 1 -16 10 -22 15 -11 15 -14 1 -35 -9 -12 -22
-22 -30 -22 -8 0 -18 -8 -24 -17 -5 -10 -19 -18 -30 -18 -12 0 -20 -3 -18 -6
1 -3 -3 -12 -9 -20 -13 -16 -4 -48 20 -68 16 -13 23 -67 8 -57 -4 2 -9 -4 -9
-15 -2 -21 21 -26 33 -7 5 7 3 8 -6 3 -10 -6 -12 -4 -7 9 4 10 7 20 7 22 0 3
5 2 10 -1 6 -3 10 1 10 10 0 9 -4 14 -9 10 -6 -3 -8 4 -6 17 3 13 9 24 15 26
5 2 10 12 10 23 0 28 68 95 82 81 8 -8 7 -16 -3 -28 -9 -12 -10 -15 -1 -10 6
4 12 3 12 -2 0 -5 8 -13 18 -16 31 -11 62 -33 56 -39 -3 -3 3 -16 15 -28 19
-21 27 -84 9 -73 -4 3 -10 -7 -14 -21 -4 -15 -11 -22 -18 -18 -6 3 -5 0 2 -8
9 -10 15 -10 20 -3 8 13 42 14 42 2 0 -5 5 -6 10 -3 6 3 10 1 10 -4 0 -6 -6
-11 -12 -11 -10 0 -9 -3 1 -9 10 -7 10 -10 1 -16 -9 -6 -6 -12 11 -21 13 -7
21 -13 17 -14 -5 0 0 -8 10 -18 9 -11 20 -17 25 -15 4 2 7 -1 7 -6 0 -6 6 -11
14 -11 8 0 18 -5 22 -12 4 -7 3 -8 -5 -4 -6 4 -18 3 -25 -3 -15 -12 -86 4 -86
20 0 6 -4 7 -10 4 -5 -3 -10 2 -10 11 0 10 -3 14 -7 11 -3 -4 -14 0 -24 9 -10
9 -25 14 -34 10 -9 -3 -14 -2 -11 3 3 5 -1 12 -9 15 -13 4 -13 9 -3 25 7 11
16 17 22 14 5 -3 6 -1 2 5 -7 12 -31 6 -55 -12 -12 -9 -13 -8 -7 3 7 10 3 12
-13 6 -12 -3 -21 -3 -20 2 4 22 -4 28 -34 30 -17 0 -26 -1 -19 -4 6 -2 12 -13
12 -24 0 -10 4 -19 10 -19 5 0 7 -7 3 -16 -3 -8 -12 -13 -19 -10 -8 3 -14 1
-14 -4 0 -6 5 -10 11 -10 5 0 7 -6 3 -12 -6 -10 -4 -10 7 0 18 17 39 15 39 -3
0 -8 -5 -15 -11 -15 -5 0 -7 6 -3 13 5 8 2 8 -9 -2 -9 -7 -17 -17 -17 -21 0
-11 25 -7 42 8 8 6 19 8 24 4 4 -4 2 1 -5 10 -11 15 -10 17 8 13 12 -2 21 0
21 6 0 5 5 9 12 9 6 0 8 -3 5 -7 -4 -3 -1 -13 6 -21 6 -9 7 -13 1 -9 -6 3 -11
0 -11 -8 0 -8 4 -12 8 -10 4 3 18 -4 30 -16 13 -11 17 -17 9 -13 -8 3 -4 -5
10 -18 14 -14 28 -23 33 -21 4 2 7 -5 7 -17 0 -17 -3 -19 -18 -11 -11 6 -24 6
-32 1 -12 -7 -11 -9 5 -10 11 0 29 -1 40 -2 11 -1 31 1 45 5 14 4 20 4 13 1
-7 -3 -9 -13 -6 -22 4 -13 3 -14 -5 -4 -13 19 -16 19 -36 3 -10 -9 -20 -11
-24 -5 -9 12 -52 14 -52 3 0 -5 6 -9 13 -9 7 0 13 -9 14 -21 1 -14 -3 -19 -12
-15 -8 3 -17 0 -21 -6 -4 -7 -3 -8 4 -4 7 4 12 4 12 -1 0 -12 -16 -35 -24 -34
-16 2 -18 0 -7 -13 9 -11 6 -12 -16 -8 -31 6 -64 32 -57 44 3 5 2 8 -3 7 -4
-1 -10 0 -13 1 -9 3 -50 7 -50 4 0 -7 60 -61 63 -58 2 3 10 -2 17 -11 7 -8 9
-15 4 -15 -4 0 1 -7 12 -15 12 -9 15 -18 9 -22 -5 -5 -10 -14 -10 -22 0 -19
-46 -52 -75 -54 -13 -1 -39 -17 -58 -37 -18 -19 -36 -34 -38 -32 -2 1 -11 2
-20 2 -14 0 -15 -2 -3 -17 8 -9 9 -14 3 -10 -6 3 -23 8 -39 11 -27 5 -27 5 -9
-13 11 -10 24 -16 29 -13 6 3 4 -2 -4 -11 -17 -21 -35 -22 -27 -2 3 8 1 15 -4
15 -6 0 -10 -4 -10 -9 0 -5 -9 -11 -20 -14 -11 -3 -23 -13 -27 -24 -4 -10 -14
-24 -22 -31 -9 -8 1 -5 22 7 30 16 37 17 37 6 0 -8 -5 -15 -11 -15 -6 0 -8 -7
-5 -16 3 -9 2 -12 -4 -9 -6 4 -25 -7 -42 -24 -30 -29 -56 -42 -44 -22 3 5 -1
12 -10 15 -11 4 -18 -1 -21 -14 -3 -13 -17 -23 -33 -27 -15 -3 -33 -16 -40
-29 -7 -13 -16 -21 -21 -19 -4 3 -14 -2 -23 -10 -8 -9 -19 -16 -23 -16 -4 0
-11 -9 -15 -19 -5 -14 -3 -18 7 -14 8 3 11 13 9 22 -5 15 -4 15 9 0 8 -10 18
-14 23 -10 4 4 2 -1 -5 -10 -7 -10 -18 -15 -24 -11 -6 3 -7 1 -3 -5 7 -12 -80
-102 -90 -93 -4 3 -4 0 0 -7 4 -7 12 -10 17 -7 5 4 9 2 9 -3 0 -11 -53 -57
-62 -54 -5 1 -7 -1 -7 -6 3 -20 -2 -25 -12 -12 -9 12 -10 13 -7 1 9 -32 96 -7
118 34 7 13 18 21 26 18 8 -3 14 1 14 11 0 9 7 16 16 16 9 0 12 5 8 12 -5 7
-3 8 6 3 11 -7 10 -10 -1 -19 -8 -6 -26 -27 -39 -46 -13 -19 -37 -47 -52 -61
-23 -22 -28 -24 -34 -10 -3 9 -8 11 -10 5 -3 -5 -18 -9 -34 -8 -17 1 -30 -2
-30 -8 0 -5 -4 -7 -8 -4 -4 2 -9 -5 -9 -17 -2 -20 -1 -21 11 -5 12 16 14 16
33 -2 12 -10 24 -17 27 -14 3 2 4 1 1 -3 -10 -12 -35 -12 -28 0 3 7 2 8 -2 4
-5 -4 -10 -15 -11 -25 -2 -9 -7 -18 -13 -20 -5 -2 -7 -10 -4 -19 4 -11 2 -14
-5 -9 -7 4 -12 1 -12 -8 0 -8 -9 -20 -20 -26 -11 -6 -20 -17 -20 -25 0 -8 -6
-15 -14 -15 -8 0 -16 -5 -18 -12 -3 -7 -13 -5 -31 7 -15 9 -27 16 -28 14 -8
-43 -8 -50 3 -44 7 4 6 1 -2 -7 -9 -7 -22 -28 -30 -46 -7 -19 -20 -40 -27 -48
-13 -13 -20 -30 -22 -57 -1 -5 -5 -5 -11 -2 -5 3 -10 1 -10 -4 0 -6 -3 -10 -7
-10 -33 5 -59 -21 -54 -54 1 -4 -6 -10 -14 -13 -8 -3 -12 -10 -9 -16 3 -5 -2
-16 -12 -24 -11 -9 -12 -12 -4 -8 8 5 -7 -18 -35 -51 -27 -32 -44 -55 -36 -50
11 6 13 4 6 -11 -4 -10 -8 -27 -9 -36 0 -9 -2 -15 -5 -13 -2 3 -10 -3 -17 -13
-9 -12 -9 -19 -1 -24 7 -4 2 -11 -13 -17 -14 -5 -19 -10 -12 -10 9 -1 10 -6 3
-20 -10 -18 -6 -31 11 -31 5 0 7 4 4 8 -3 5 4 18 14 30 11 12 20 25 20 31 0 5
6 12 13 14 7 3 5 6 -5 6 -17 1 -17 2 -1 21 10 11 24 20 32 20 8 0 11 3 8 7 -4
3 -1 13 6 21 10 13 9 14 -3 8 -8 -5 -2 3 13 17 16 14 26 31 22 37 -3 5 1 13 9
16 8 3 18 15 22 26 3 11 13 29 22 39 16 18 17 18 24 2 6 -16 8 -15 14 4 3 13
10 20 15 17 5 -3 9 4 9 16 0 14 -4 19 -13 15 -6 -4 4 9 25 28 20 20 34 38 31
41 -3 2 9 12 26 21 17 8 31 22 31 31 0 9 5 12 13 8 8 -5 8 -2 -2 9 -10 13 -10
17 -1 17 7 0 10 7 6 16 -5 14 -4 15 9 4 12 -10 15 -10 15 3 0 22 19 32 33 17
9 -10 9 -11 0 -6 -9 5 -13 0 -13 -13 0 -11 -7 -24 -16 -29 -9 -5 -15 -13 -15
-18 1 -18 -11 -44 -18 -40 -4 3 -18 -13 -32 -34 -13 -22 -29 -38 -36 -35 -7 2
-10 -2 -6 -11 3 -7 0 -14 -7 -14 -6 0 -8 -4 -5 -10 3 -5 1 -10 -5 -10 -6 0 -8
-5 -5 -10 3 -6 -1 -13 -9 -16 -9 -3 -14 -10 -11 -14 3 -4 -3 -14 -12 -21 -12
-10 -14 -10 -9 -1 4 6 5 12 2 12 -7 0 -51 -74 -48 -82 1 -5 -3 -8 -9 -8 -6 0
-9 -7 -5 -15 3 -8 0 -14 -6 -12 -17 3 -16 -42 1 -56 14 -10 14 -10 3 5 -9 11
-10 18 -2 23 5 3 11 4 11 1 6 -24 3 -33 -15 -49 -19 -15 -19 -17 -2 -11 18 7
18 6 2 -18 -9 -13 -13 -28 -9 -32 4 -3 -3 -13 -15 -22 -12 -8 -20 -19 -17 -24
3 -5 0 -21 -6 -37 -13 -31 -18 -48 -22 -78 -2 -12 -7 -27 -13 -35 -5 -8 -9
-26 -10 -40 -1 -31 -10 -68 -34 -140 -10 -30 -21 -73 -25 -95 -3 -21 -9 -42
-13 -45 -9 -7 -9 -110 0 -104 5 3 8 0 8 -7 0 -6 -8 -9 -18 -7 -14 4 -17 -2
-17 -39 1 -23 -2 -43 -6 -43 -9 0 -22 30 -25 60 -2 14 -6 35 -9 48 -3 14 -1
22 7 22 9 0 9 3 -1 9 -18 12 -23 41 -10 57 7 8 6 14 -1 19 -11 7 -8 95 4 114
4 6 4 16 1 21 -3 6 2 10 12 10 10 0 14 4 8 8 -16 11 -16 32 -1 32 10 0 13 9
10 33 -4 25 -2 29 6 17 9 -12 11 -12 8 -1 -5 17 -39 24 -37 8 3 -24 -1 -37
-11 -37 -12 0 -9 37 3 58 5 6 5 17 2 22 -3 6 -1 10 6 10 8 0 7 6 -4 18 -11 12
-13 22 -7 32 8 12 10 11 10 -6 0 -12 7 -25 16 -28 13 -5 14 -3 6 7 -7 8 -8 18
-1 27 8 13 10 13 19 0 6 -9 10 -10 10 -3 0 7 -8 17 -17 22 -11 6 -13 11 -5 11
7 0 10 5 7 10 -3 6 -1 10 5 10 6 0 8 5 3 13 -11 18 -13 38 -2 31 5 -3 6 -10 3
-16 -5 -7 -2 -8 5 -4 7 5 10 14 7 22 -4 9 2 14 16 14 21 0 21 0 3 14 -21 15
-45 11 -45 -9 0 -14 -17 -15 -37 -2 -8 5 -13 4 -13 -2 0 -6 5 -11 11 -11 8 0
8 -4 1 -13 -6 -7 -9 -25 -8 -40 2 -20 0 -25 -8 -18 -12 10 -19 -16 -18 -69 0
-14 -3 -29 -8 -35 -4 -5 -7 -21 -6 -35 1 -14 0 -29 -3 -35 -8 -14 -13 -38 -25
-115 -3 -14 -5 -25 -6 -25 -2 0 -12 -212 -11 -247 0 -24 -4 -38 -12 -38 -8 0
-8 -3 -2 -8 11 -7 13 -18 19 -172 2 -52 8 -109 14 -127 6 -17 8 -34 5 -37 -3
-3 -1 -11 5 -18 5 -7 13 -31 17 -53 4 -22 12 -48 17 -58 5 -10 11 -37 14 -60
2 -23 7 -62 10 -87 3 -25 8 -67 11 -95 2 -27 6 -59 7 -70 2 -11 4 -26 5 -34 0
-8 8 -11 19 -9 15 4 18 0 16 -18 -1 -13 1 -24 5 -24 4 0 8 -7 8 -15 0 -8 -4
-12 -9 -9 -8 5 -12 -11 -9 -30 1 -5 -5 -6 -14 -2 -11 4 -14 2 -9 -6 5 -7 8
-28 8 -48 1 -19 6 -35 11 -35 6 0 16 -4 23 -8 11 -7 16 -3 14 14 -1 3 5 6 12
6 7 0 12 -12 10 -31 -2 -42 -2 -42 -17 -22 -12 16 -14 16 -26 2 -7 -8 -10 -20
-6 -26 11 -18 23 -11 19 13 -4 20 -4 20 4 2 5 -11 13 -20 18 -20 5 0 15 -4 22
-9 10 -6 10 -11 1 -22 -6 -8 -7 -14 -2 -14 11 0 10 1 13 -82 2 -32 6 -56 9
-53 4 2 8 -13 9 -33 2 -20 6 -46 9 -57 7 -19 8 -32 12 -98 0 -16 5 -26 10 -22
5 3 12 1 16 -5 3 -5 2 -10 -3 -10 -5 0 -12 -9 -15 -21 -5 -17 -3 -18 10 -7 15
12 15 10 3 -12 -10 -21 -10 -23 1 -12 22 21 25 14 21 -57 -3 -58 -1 -71 15
-82 18 -14 23 -46 9 -68 -4 -6 -3 -11 1 -11 5 0 14 -18 20 -40 6 -24 6 -40 1
-40 -5 0 -2 -7 6 -16 9 -8 14 -19 11 -24 -3 -5 -2 -10 2 -12 13 -5 51 -81 56
-108 2 -14 6 -32 9 -40 3 -8 16 -53 29 -100 12 -47 25 -87 28 -90 6 -5 7 -21
14 -125 1 -22 5 -45 10 -52 4 -6 3 -13 -2 -15 -5 -1 -1 -14 10 -27 10 -13 19
-18 19 -12 0 6 4 11 9 11 5 0 11 -23 15 -51 4 -28 13 -58 21 -65 11 -11 14
-45 12 -149 -1 -74 -5 -135 -8 -135 -8 0 -6 -52 3 -66 4 -6 7 -48 8 -95 0 -46
1 -131 1 -189 0 -58 5 -110 10 -117 7 -7 6 -13 0 -17 -6 -4 -6 -18 -1 -36 5
-19 5 -30 -1 -30 -6 0 -7 -4 -4 -10 11 -18 16 -55 16 -122 -1 -38 2 -68 7 -68
16 0 28 -46 19 -68 -7 -16 -6 -32 7 -59 9 -21 14 -50 11 -65 -3 -16 -1 -28 5
-28 5 0 10 -6 10 -14 0 -8 4 -16 9 -18 5 -2 10 -16 12 -33 2 -16 7 -36 12 -42
5 -7 6 -13 3 -13 -4 0 -1 -10 5 -22 6 -12 13 -38 15 -57 5 -48 8 -64 17 -78 5
-7 6 -17 2 -22 -3 -5 -1 -13 5 -16 6 -4 9 -20 6 -36 -2 -16 -1 -31 3 -33 4 -3
8 -60 9 -128 2 -137 4 -150 18 -169 5 -8 9 -34 8 -59 -1 -25 3 -48 9 -51 5 -4
10 -29 11 -57 0 -28 4 -54 8 -58 4 -4 3 -13 -3 -21 -9 -9 -8 -13 0 -13 6 0 10
-3 9 -7 0 -5 6 -24 15 -44 9 -20 14 -46 12 -58 -2 -11 0 -23 4 -25 4 -3 8 -24
10 -48 5 -59 8 -101 10 -115 0 -6 10 -9 21 -6 17 5 19 0 18 -33 0 -22 4 -50 9
-64 6 -14 8 -31 5 -39 -4 -10 -1 -12 8 -6 10 6 11 4 4 -6 -14 -22 -16 -59 -3
-59 8 0 8 -4 -1 -15 -10 -12 -9 -15 5 -15 11 0 15 -5 11 -16 -4 -10 -2 -13 6
-8 7 5 9 2 5 -9 -4 -10 -2 -14 6 -11 7 2 18 -5 25 -16 9 -15 9 -20 0 -20 -6 0
-3 -7 8 -15 10 -8 16 -15 12 -15 -3 0 8 -14 25 -31 20 -20 42 -32 62 -33 25
-2 29 -6 27 -24 -2 -13 2 -22 10 -22 11 0 11 -2 0 -9 -11 -7 -11 -9 2 -14 9
-4 20 1 25 11 9 15 10 14 8 -5 0 -12 -4 -20 -8 -18 -3 3 -14 -2 -24 -9 -16
-11 -14 -13 16 -9 24 3 30 1 20 -5 -11 -8 -10 -12 5 -21 11 -6 13 -11 7 -11
-8 0 -11 -10 -7 -30 5 -23 2 -31 -12 -37 -20 -7 -43 -32 -44 -46 0 -5 5 -5 10
-2 19 12 10 -12 -16 -40 -14 -15 -19 -25 -10 -22 11 4 14 0 10 -16 -2 -12 -8
-23 -13 -25 -5 -2 -7 -12 -4 -22 3 -12 0 -20 -6 -20 -7 0 -10 -4 -6 -9 3 -5
-1 -16 -9 -24 -8 -8 -12 -17 -9 -21 4 -3 2 -6 -4 -6 -6 0 -13 -10 -16 -22 -4
-12 -9 -19 -13 -16 -8 8 -34 -16 -34 -31 0 -6 -10 -15 -21 -22 -15 -7 -18 -14
-10 -18 8 -5 7 -16 -5 -39 -15 -31 -34 -43 -34 -22 0 6 -4 10 -9 10 -5 0 -7
-9 -4 -20 3 -12 0 -20 -6 -20 -7 0 -9 -5 -6 -10 7 -11 -33 -49 -52 -50 -6 0
-15 -5 -19 -12 -5 -7 -3 -8 6 -3 9 5 11 4 6 -4 -6 -9 -11 -9 -24 1 -10 8 -13
9 -9 1 4 -7 -2 -18 -14 -26 -15 -11 -17 -16 -7 -20 10 -4 10 -7 -2 -16 -8 -5
-17 -8 -21 -5 -9 5 -24 -35 -20 -54 2 -10 -2 -11 -18 -3 -21 12 -37 0 -26 -19
3 -6 -1 -13 -9 -16 -9 -3 -16 -12 -16 -18 0 -7 -11 -19 -25 -26 -13 -7 -27
-21 -31 -32 -3 -10 -9 -18 -14 -18 -5 0 -16 -8 -26 -18 -10 -9 -20 -17 -23
-17 -16 -1 -59 -30 -80 -53 -13 -15 -20 -20 -16 -12 5 12 4 12 -7 -1 -17 -20
-46 -30 -53 -19 -4 6 -15 4 -28 -4 -12 -7 -33 -12 -47 -12 -26 1 -51 -14 -43
-27 2 -4 -1 -7 -7 -7 -6 0 -9 -4 -5 -9 3 -5 1 -12 -5 -16 -5 -3 -10 1 -10 9 0
10 -6 13 -15 10 -14 -6 -13 -8 2 -19 12 -9 23 -10 35 -4 10 5 18 6 18 2 0 -11
-37 -43 -50 -43 -6 0 -10 -5 -10 -11 0 -5 -5 -7 -10 -4 -6 4 -9 3 -8 -2 2 -4
-17 -29 -42 -54 -27 -28 -45 -54 -44 -67 1 -12 -2 -22 -7 -22 -4 0 -6 -9 -4
-20 2 -11 -2 -20 -8 -20 -7 0 -6 -4 3 -10 8 -5 12 -10 8 -10 -4 0 -1 -17 6
-38 8 -21 16 -55 19 -76 3 -20 7 -38 8 -40 16 -10 78 -66 74 -66 -4 0 8 -12
27 -27 50 -42 58 -50 52 -56 -4 -3 10 -9 30 -12 20 -4 36 -13 36 -19 0 -7 23
-23 51 -35 27 -13 61 -35 75 -49 13 -15 24 -24 24 -20 0 3 15 -8 33 -25 18
-18 31 -35 29 -39 -2 -5 4 -8 12 -8 8 0 22 -10 31 -23 8 -12 21 -22 28 -22 6
0 13 -10 15 -22 2 -15 13 -25 28 -29 22 -6 26 -11 23 -31 -1 -10 30 -25 40
-18 9 5 27 -32 23 -47 -1 -5 6 -8 16 -8 21 0 52 -30 52 -50 0 -7 3 -11 6 -8 7
7 26 -9 149 -132 38 -39 73 -70 77 -70 4 0 43 -36 87 -80 44 -44 85 -80 91
-80 5 0 9 -4 8 -8 -2 -4 38 -49 87 -99 50 -49 97 -100 105 -112 8 -11 22 -24
32 -27 10 -3 18 -11 18 -19 0 -7 12 -26 28 -42 43 -44 115 -133 107 -133 -4 0
7 -14 24 -31 17 -17 31 -36 31 -43 0 -7 11 -23 25 -36 14 -13 25 -29 25 -35 0
-7 9 -20 20 -30 11 -10 20 -24 20 -31 0 -7 4 -14 8 -16 9 -4 71 -103 75 -120
1 -6 10 -22 21 -34 10 -12 19 -26 19 -31 1 -7 19 -31 42 -57 6 -6 26 -38 45
-71 19 -33 51 -82 72 -110 21 -27 36 -55 34 -62 -3 -6 -2 -13 2 -15 4 -2 21
-18 37 -37 17 -19 23 -30 15 -25 -8 4 1 -11 20 -35 19 -23 40 -50 45 -59 6
-10 12 -19 15 -22 3 -3 11 -17 19 -32 8 -15 22 -37 33 -47 10 -11 18 -24 18
-28 0 -4 14 -21 30 -36 17 -16 30 -33 30 -38 0 -6 18 -34 40 -64 22 -30 40
-59 40 -65 0 -5 5 -10 10 -10 6 0 10 -4 10 -9 0 -6 12 -23 26 -38 14 -15 30
-37 35 -48 8 -17 41 -68 66 -100 5 -5 21 -30 38 -55 16 -25 36 -49 42 -53 7
-4 13 -14 13 -20 0 -7 9 -19 20 -27 11 -8 20 -19 20 -25 0 -6 16 -28 35 -50
19 -22 35 -43 35 -47 0 -4 23 -30 50 -58 27 -28 50 -54 50 -58 0 -4 25 -34 55
-66 67 -73 115 -132 115 -142 0 -4 16 -23 36 -41 20 -18 33 -33 30 -33 -9 0
18 -35 93 -119 32 -36 80 -91 106 -121 27 -30 52 -57 57 -58 4 -2 8 -9 8 -16
0 -6 8 -19 18 -27 9 -9 31 -33 47 -55 27 -35 73 -88 130 -150 67 -73 104 -115
135 -154 19 -24 47 -57 63 -73 15 -17 27 -33 27 -37 0 -4 11 -20 24 -35 14
-16 23 -32 20 -37 -3 -4 1 -8 8 -8 7 0 27 -23 43 -51 17 -27 40 -62 52 -77 13
-15 23 -32 23 -39 0 -6 4 -13 9 -15 8 -3 145 -179 187 -242 12 -17 31 -40 43
-50 11 -11 21 -22 21 -27 0 -4 15 -22 33 -41 70 -75 227 -263 227 -272 0 -3
19 -25 43 -49 23 -24 58 -62 77 -85 73 -88 118 -132 133 -132 19 0 29 29 33
95 2 28 3 55 4 60 0 6 -1 31 -3 57 -1 27 1 48 5 48 4 0 4 10 -1 23 -5 12 -5
31 -1 42 4 11 3 26 -2 33 -6 6 -7 12 -2 12 10 0 17 112 17 280 0 114 -5 167
-23 229 -5 17 -10 35 -11 39 -1 4 -3 12 -4 17 -2 6 -13 42 -24 81 -12 40 -23
86 -26 103 -2 17 -6 35 -10 41 -3 5 -8 35 -10 66 -3 30 -7 60 -10 65 -4 5 -3
14 1 20 3 6 8 36 9 67 1 32 4 58 5 60 4 3 5 11 15 72 10 61 9 59 18 80 3 8 8
32 12 53 3 20 10 37 15 37 4 0 6 9 3 20 -3 11 0 20 6 20 6 0 10 3 9 8 -3 14
14 62 22 62 5 0 11 18 15 40 4 22 10 42 15 45 5 3 18 26 31 53 12 26 33 61 45
79 13 17 24 35 24 38 0 10 50 74 93 119 20 21 37 45 37 51 0 6 11 18 25 25 14
7 25 17 25 21 0 14 183 189 229 220 51 33 132 103 239 204 92 87 77 71 207
210 61 65 116 123 123 129 7 6 41 39 76 74 35 34 66 62 70 62 4 0 24 17 45 38
20 20 54 48 75 62 20 14 43 31 51 37 7 7 18 13 22 13 5 0 19 9 31 20 12 11 24
20 27 20 3 0 19 7 35 15 17 9 30 12 30 8 0 -5 5 0 11 10 5 9 19 17 29 17 11 0
20 7 20 15 0 18 32 35 62 33 13 -1 39 4 58 10 32 10 80 19 135 25 11 1 22 5
25 8 7 9 97 49 109 49 6 0 11 4 11 8 0 4 14 16 32 27 38 22 118 98 118 112 0
6 11 22 25 37 13 14 22 26 20 26 -2 0 8 24 23 53 23 43 64 139 67 157 9 46 50
219 62 260 9 30 18 60 19 66 14 77 83 221 98 206 4 -3 5 0 1 8 -3 8 6 27 20
42 14 15 25 31 25 37 0 5 14 23 30 41 17 18 30 34 30 37 0 3 10 13 22 23 17
13 25 15 30 7 6 -9 8 -8 8 1 0 18 19 36 57 56 18 9 36 22 40 30 9 16 75 27 94
15 9 -5 25 0 44 15 34 26 55 24 48 -3 -3 -11 2 -21 13 -25 13 -5 14 -4 6 7 -8
9 -8 17 0 27 8 13 9 12 5 -2 -3 -9 1 -19 9 -22 9 -3 12 -11 8 -18 -4 -7 -4
-10 1 -6 4 4 15 2 24 -4 12 -10 12 -7 -2 8 -9 11 -14 24 -10 29 5 4 1 5 -7 0
-12 -6 -13 -5 -3 5 10 11 17 10 37 -4 14 -9 32 -16 41 -16 10 0 13 -5 9 -12
-4 -7 -3 -8 5 -4 6 4 9 12 6 17 -10 15 7 10 29 -9 20 -16 20 -16 7 1 -12 15
-11 17 3 17 9 0 16 -4 16 -9 0 -12 43 -1 52 13 5 8 8 7 8 -1 0 -7 8 -13 19
-13 10 0 25 -10 33 -21 14 -22 14 -22 47 11 l32 33 26 -37 c13 -21 27 -35 30
-32 3 3 12 -2 20 -12 12 -16 13 -15 6 3 -6 18 -5 18 10 6 15 -11 17 -11 17 2
0 8 -9 17 -20 20 -11 3 -20 11 -20 19 0 11 2 11 9 -1 6 -9 10 -10 12 -2 3 8
12 4 27 -9 14 -13 22 -16 22 -8 0 10 2 10 8 1 4 -7 13 -9 21 -4 7 5 22 6 34 3
15 -4 18 -2 12 9 -8 12 -6 12 9 0 15 -12 17 -12 14 0 -2 8 3 13 10 11 8 -1 11
2 8 7 -4 5 -2 12 4 16 5 3 10 3 10 -2 0 -4 11 -13 24 -19 18 -9 25 -8 34 5 7
9 11 12 11 6 -3 -24 2 -33 23 -38 13 -4 26 -1 30 6 6 9 8 9 8 0 0 -6 -7 -19
-16 -28 -14 -13 -14 -19 -4 -28 10 -9 11 -9 6 1 -5 8 0 12 13 12 10 0 28 3 38
6 15 5 15 4 3 -5 -8 -6 -11 -11 -6 -11 6 0 1 -7 -10 -16 -18 -14 -18 -15 6 -8
23 6 24 6 10 -12 -12 -14 -8 -13 14 4 34 26 42 27 62 7 21 -21 57 1 50 31 -5
18 -2 20 19 16 14 -2 25 -9 25 -14 0 -5 -4 -7 -8 -4 -5 3 -9 -1 -9 -9 0 -13 3
-13 16 -2 18 15 55 11 45 -5 -5 -7 -2 -8 5 -3 15 9 73 14 84 8 5 -3 0 -11 -10
-18 -15 -11 -21 -11 -37 3 -18 16 -18 16 -7 -6 7 -12 9 -27 6 -32 -6 -9 0 -11
23 -9 4 0 6 7 4 14 -1 8 7 19 19 25 17 9 25 8 42 -7 11 -10 17 -13 14 -7 -4 7
1 15 10 19 10 3 19 2 21 -3 2 -6 12 -8 22 -5 12 3 20 0 20 -6 0 -7 5 -9 10 -6
6 3 10 1 10 -6 0 -8 3 -9 13 0 8 6 17 8 21 4 10 -10 37 -15 79 -15 20 0 35 -2
33 -6 -5 -9 16 -27 31 -27 7 0 18 8 25 18 8 10 29 20 48 22 19 2 39 4 43 4 5
1 6 5 3 10 -9 14 23 22 60 15 21 -4 40 -2 49 6 10 8 19 9 28 2 15 -12 44 -8
83 13 16 8 36 15 45 15 9 0 24 9 34 20 10 11 24 20 32 20 31 0 193 192 193
228 0 4 9 13 20 20 12 7 18 17 15 22 -3 6 -1 10 5 10 6 0 9 4 6 9 -3 5 17 38
44 75 27 36 55 76 61 88 7 13 15 25 18 28 10 8 29 41 60 101 15 31 37 66 48
78 18 20 44 65 103 181 13 25 26 54 30 65 5 11 13 35 20 53 7 17 16 32 21 32
5 0 9 6 9 13 0 7 15 43 34 80 19 37 33 67 31 67 -3 0 5 21 15 46 11 25 20 53
20 61 0 21 92 203 102 203 4 0 8 6 8 14 0 8 3 16 8 18 11 5 42 64 42 82 0 9 4
16 9 16 9 0 29 41 35 75 2 11 10 34 17 50 6 17 13 37 15 46 2 8 11 42 20 75 9
32 17 75 18 94 1 19 5 40 9 47 4 6 10 47 12 90 3 43 8 96 12 118 9 65 11 169
2 180 -4 6 -7 12 -7 15 0 13 -26 60 -34 60 -4 0 -8 7 -8 15 0 8 -4 15 -10 15
-18 0 -11 49 10 70 11 11 17 20 14 20 -4 0 0 7 7 16 27 33 28 78 4 369 -3 39
-8 124 -10 190 -2 66 -7 163 -11 215 -11 146 -8 268 6 285 7 8 10 15 6 15 -4
0 3 18 14 39 29 58 85 100 168 126 70 22 127 45 164 65 10 6 26 10 36 10 31 0
166 108 227 183 13 14 59 90 61 97 1 5 4 15 23 65 24 61 28 91 27 177 -1 51
-4 98 -7 103 -3 6 -6 24 -7 40 -2 30 -9 70 -12 70 -1 0 -4 14 -6 30 -8 57 -46
173 -75 227 -5 10 -9 27 -9 38 0 11 -4 28 -9 38 -33 65 -71 152 -71 161 0 6
-4 19 -10 29 -5 9 -23 49 -40 87 -17 39 -38 84 -47 100 -10 17 -16 31 -14 33
4 5 -72 157 -81 160 -4 2 -8 10 -8 18 0 8 -4 14 -10 14 -5 0 -10 9 -10 20 0
11 -4 20 -10 20 -5 0 -10 9 -10 19 0 10 -7 21 -15 25 -8 3 -14 9 -13 13 4 15
-13 53 -22 48 -4 -3 -14 8 -22 25 -7 16 -17 30 -21 30 -5 0 -7 6 -5 12 3 7 -4
22 -14 33 -10 11 -21 29 -24 42 -9 34 -34 37 -63 8 -21 -21 -23 -25 -8 -25 22
0 21 -6 -2 -36 -12 -15 -21 -20 -23 -13 -2 7 -11 13 -20 15 -10 1 -15 -3 -12
-11 8 -21 -12 -27 -27 -8 -12 14 -12 16 1 9 9 -5 9 -2 -2 7 -16 12 -42 97 -31
97 3 0 0 6 -6 14 -7 8 -13 37 -14 65 -1 28 -5 51 -9 51 -4 0 -3 13 2 30 5 18
5 32 -1 36 -6 4 -6 10 0 18 7 9 7 16 -1 24 -9 9 -9 12 3 12 11 0 11 2 1 9 -8
4 -14 12 -14 16 0 4 6 12 14 16 7 5 8 9 3 9 -6 0 -11 9 -12 20 -1 11 2 20 8
20 5 0 9 -5 9 -11 0 -5 5 -7 10 -4 6 4 9 36 8 75 -2 37 -7 66 -11 63 -5 -3 -7
-14 -4 -24 3 -11 1 -19 -3 -19 -4 0 -6 -8 -3 -18 3 -12 -2 -18 -15 -19 -20 -2
-23 11 -8 36 8 12 9 165 2 451 -1 52 -7 104 -13 115 -9 16 -8 25 6 41 25 31
39 19 33 -31 -4 -48 5 -58 25 -26 10 15 10 21 0 24 -7 2 7 10 30 17 36 11 41
16 41 41 -1 16 -5 26 -11 22 -13 -8 3 40 17 49 6 4 8 8 4 8 -8 0 29 40 37 40
2 0 2 -6 -1 -13 -3 -8 4 -13 18 -14 18 -2 20 0 8 7 -12 8 -12 10 -1 10 9 0 11
7 8 21 -3 12 2 28 12 38 13 13 16 23 9 35 -7 12 -5 16 7 16 10 0 13 5 9 12 -5
8 -2 9 11 4 15 -5 16 -4 6 8 -8 10 -9 16 -1 21 6 3 8 10 5 15 -3 5 -1 11 5 15
6 4 8 10 6 14 -3 4 6 20 20 37 14 16 22 23 18 15 -4 -9 -3 -12 4 -7 5 3 13 0
15 -6 4 -9 6 -9 6 -1 1 6 -6 18 -14 27 -9 8 -11 17 -6 21 6 3 15 -3 21 -12 10
-16 11 -16 6 -1 -3 10 2 22 12 28 15 10 15 11 -3 5 -18 -6 -18 -5 2 17 12 13
23 28 24 33 4 25 12 34 22 28 6 -4 8 0 4 10 -4 12 -1 17 11 17 15 0 15 2 2 10
-8 5 -10 10 -4 10 6 0 11 12 12 28 1 25 8 67 12 67 1 0 3 9 5 19 2 10 10 23
17 27 11 7 10 9 -1 9 -11 0 -11 3 -1 15 7 8 9 15 5 15 -5 0 2 9 15 20 13 11
27 20 32 20 5 0 6 5 3 10 -3 6 -1 10 4 10 6 0 10 3 9 8 -4 14 14 72 21 68 4
-3 6 8 5 25 -1 16 2 29 8 29 5 0 8 6 6 12 -3 7 1 19 9 26 10 10 10 18 1 35
-11 21 -10 21 8 7 10 -8 16 -11 12 -6 -4 5 1 19 11 31 11 15 17 37 15 64 -1
25 3 41 10 42 6 0 2 4 -9 9 -11 5 -15 9 -8 9 6 1 11 15 11 32 -1 17 5 34 12
39 10 6 9 9 -1 12 -11 4 -12 8 -2 20 7 8 10 18 6 21 -3 4 -2 7 4 7 6 0 13 9
16 20 3 11 1 18 -4 14 -5 -3 -9 6 -9 20 0 14 6 26 13 26 9 0 8 3 -2 9 -8 5 -9
11 -3 15 6 3 9 12 7 19 -1 6 -6 26 -10 44 -4 18 -12 31 -18 30 -6 -1 -11 5
-12 13 -2 33 -18 90 -25 90 -4 0 -12 12 -18 26 -7 14 -8 23 -2 19 6 -4 10 6
10 24 0 17 -5 31 -11 31 -7 0 -8 5 -2 13 13 18 16 64 4 71 -7 5 -7 15 1 31 8
19 8 32 -1 51 -9 20 -9 30 0 40 9 11 9 14 0 14 -7 0 -9 5 -4 13 10 15 11 107
1 107 -5 0 -8 9 -8 20 0 11 -4 20 -9 20 -11 0 -33 54 -29 72 2 8 -8 26 -22 40
-42 45 -50 57 -50 73 0 8 -8 15 -17 15 -14 0 -15 2 -4 9 10 7 8 12 -10 25 -13
9 -20 16 -16 16 4 0 3 9 -3 20 -8 15 -8 20 1 20 6 0 -5 15 -25 33 -20 18 -36
38 -36 44 0 15 -39 23 -47 11 -3 -6 -1 -8 5 -4 6 3 13 2 17 -4 4 -6 -5 -10
-19 -10 -14 0 -25 3 -23 8 2 8 -1 10 -43 22 -33 9 -39 -9 -7 -22 23 -10 15
-24 -18 -30 -14 -3 -24 -3 -21 -1 2 3 0 18 -6 34 -7 21 -22 35 -49 46 -22 8
-39 19 -39 24 0 5 -9 9 -19 9 -11 0 -32 10 -46 23 l-26 22 30 1 c17 1 31 -2
31 -6 0 -4 18 -12 40 -19 22 -7 38 -16 35 -21 -4 -6 1 -10 9 -10 9 0 16 5 16
10 0 6 5 10 10 10 6 0 10 -6 10 -13 0 -9 10 -13 28 -12 18 1 27 7 26 18 -1 13
2 14 17 7 15 -8 17 -7 13 5 -4 8 -12 15 -19 15 -7 0 -16 6 -18 13 -3 7 -6 4
-6 -6 -1 -16 -5 -14 -30 10 -16 15 -27 31 -25 34 2 3 -8 11 -21 17 -14 7 -25
8 -25 4 0 -4 -16 -8 -35 -9 -22 -1 -34 3 -32 10 1 7 -4 11 -10 10 -7 -2 -13 1
-13 7 0 5 -7 7 -15 4 -8 -4 -15 -1 -15 5 0 6 -3 10 -7 10 -22 -4 -33 3 -33 19
0 13 2 14 9 3 6 -9 11 -10 15 -2 5 7 14 4 28 -9 20 -18 44 -18 33 0 -3 5 -1
11 5 15 5 3 10 1 10 -5 0 -6 5 -8 10 -5 6 3 13 0 16 -9 3 -9 16 -14 32 -12 39
4 82 -23 82 -52 0 -18 4 -23 16 -18 9 3 18 6 20 6 3 0 3 4 0 8 -3 4 8 7 23 6
18 -1 28 3 28 12 0 10 -4 11 -14 3 -12 -11 -18 -2 -14 24 0 4 -6 7 -14 7 -8 0
-15 5 -15 11 0 5 -4 7 -10 4 -5 -3 -10 -2 -10 3 0 4 -16 16 -35 25 -19 9 -35
13 -35 8 0 -5 -9 -7 -20 -4 -11 3 -17 10 -14 15 3 5 -4 12 -16 15 -12 3 -19
11 -16 19 3 8 0 11 -10 7 -7 -3 -14 0 -14 6 0 9 -5 9 -20 1 -16 -9 -18 -8 -14
5 6 15 -23 49 -49 58 -7 2 -9 8 -5 12 4 4 19 0 33 -9 14 -9 30 -14 35 -11 6 3
10 2 10 -2 0 -5 9 -9 20 -10 30 -3 25 35 -7 63 -16 13 -28 30 -28 36 -1 7 -7
11 -15 9 -8 -1 -25 -4 -37 -5 -11 0 -19 -4 -16 -8 8 -15 -8 -8 -29 12 -12 11
-28 20 -35 20 -7 0 -13 4 -13 10 0 5 -3 9 -7 9 -5 -1 -15 -1 -23 0 -13 1 -13
2 0 11 11 7 11 10 2 10 -7 0 -10 5 -6 12 4 6 3 8 -3 5 -6 -4 -19 3 -29 14 -10
11 -24 17 -31 15 -7 -3 -15 0 -19 6 -4 6 -3 8 4 4 5 -3 13 0 15 6 4 9 8 10 14
2 4 -6 16 -10 25 -8 10 1 21 -2 24 -8 4 -6 10 -5 15 3 7 11 13 11 36 -2 15 -9
42 -19 58 -23 26 -5 27 -5 10 5 -25 15 -61 52 -57 59 1 3 -4 12 -12 22 -8 9
-11 20 -8 24 4 4 2 4 -4 1 -6 -4 -20 4 -30 18 -10 13 -21 22 -26 19 -4 -3 -8
0 -8 6 0 6 -5 8 -11 4 -8 -4 -9 1 -4 17 4 18 4 20 -4 10 -8 -12 -12 -12 -25
-2 -9 7 -14 17 -11 21 9 15 -26 40 -66 46 -30 5 -39 11 -39 26 0 21 0 21 63 1
24 -7 22 16 -4 43 -25 27 -19 43 16 37 15 -3 22 -10 18 -17 -4 -6 1 -5 10 3 9
7 17 20 17 28 0 8 4 12 9 9 5 -3 11 3 14 14 3 11 2 19 -2 18 -34 -4 -64 46
-47 78 6 10 15 22 20 25 12 9 -12 22 -25 13 -6 -3 -3 9 7 27 13 25 13 31 3 22
-12 -10 -15 -8 -16 8 -1 12 3 17 9 13 7 -4 8 -2 4 4 -4 7 -2 12 5 12 7 0 3 10
-10 21 -17 16 -26 18 -34 10 -8 -8 -7 -11 6 -11 19 0 23 -15 7 -25 -5 -3 -10
-1 -10 5 0 6 -4 8 -10 5 -5 -3 -10 -1 -10 6 0 7 -8 21 -17 31 -16 18 -16 18 0
12 9 -3 17 -11 17 -16 0 -6 6 -5 15 2 18 15 10 31 -12 23 -11 -4 -14 -3 -9 5
4 7 2 12 -5 12 -10 0 -10 3 -1 12 15 15 16 32 2 23 -5 -3 -10 1 -10 9 0 9 -4
16 -8 16 -14 0 -52 36 -52 49 0 6 -5 11 -12 11 -6 0 -8 3 -5 7 4 3 -1 12 -11
20 -16 12 -16 13 2 6 19 -6 19 -6 0 14 -10 11 -22 18 -25 16 -4 -1 -10 4 -13
13 -3 8 -10 12 -16 9 -11 -7 -59 43 -60 61 0 7 -13 22 -29 35 -16 13 -27 27
-25 31 3 4 0 8 -6 8 -18 0 -40 27 -40 50 0 12 -4 19 -8 16 -4 -2 -8 4 -9 14
-1 10 5 21 14 24 14 6 14 8 -1 25 -9 9 -13 21 -10 24 4 4 -1 9 -10 13 -9 3
-16 12 -16 19 0 8 -8 16 -18 19 -10 3 -37 24 -61 46 -23 22 -45 40 -47 40 -7
0 -54 52 -54 59 0 3 -12 12 -27 18 -16 7 -42 25 -58 40 -33 30 -41 35 -122 83
-29 16 -53 34 -53 39 0 5 -12 14 -27 20 -27 10 -103 51 -113 61 -16 16 -100
70 -109 70 -5 0 -33 14 -61 30 -28 17 -55 30 -60 30 -6 0 -10 4 -10 9 0 5 -8
12 -19 16 -10 3 -31 16 -46 29 -16 13 -33 22 -40 20 -6 -3 -20 4 -30 16 -10
11 -23 20 -28 20 -6 0 -25 11 -43 25 -18 14 -37 25 -43 25 -5 0 -16 7 -25 15
-8 9 -43 30 -78 47 -35 17 -65 34 -68 37 -16 21 -70 50 -84 45 -9 -3 -16 -1
-16 5 0 6 -7 11 -15 11 -9 0 -27 11 -41 25 -14 14 -28 25 -32 26 -40 4 -70 13
-94 25 -15 8 -28 12 -28 10 0 -3 -12 1 -27 9 -15 8 -30 12 -35 9 -4 -3 -8 -1
-8 4 0 5 -11 8 -23 7 -13 -2 -44 8 -70 20 -25 13 -48 21 -50 18 -3 -2 -15 0
-26 7 -26 13 -29 42 -3 33 24 -9 14 -1 -31 25 -21 12 -35 18 -32 12 3 -5 1
-10 -5 -10 -6 0 -8 -4 -5 -10 9 -15 -26 -12 -55 5 -22 12 -23 14 -5 14 44 1
53 5 48 18 -4 9 -20 13 -48 12 -28 -2 -41 -7 -38 -14 2 -8 -5 -11 -19 -10 -13
1 -30 3 -37 4 -12 1 -12 4 -3 13 10 10 15 10 21 0 7 -11 9 -11 14 1 5 12 -2
14 -36 11 -31 -3 -38 -2 -27 6 13 9 13 10 0 11 -8 1 -18 1 -22 0 -5 0 -8 3 -8
9 0 5 -7 10 -16 10 -8 0 -12 -4 -9 -10 3 -5 3 -10 -2 -11 -4 0 -18 -2 -30 -3
-18 -2 -23 2 -23 21 0 21 -14 29 -42 24 -5 0 -8 3 -8 7 0 4 -10 8 -22 9 -13 1
-41 4 -63 8 -58 9 -76 9 -112 3 -19 -4 -33 -2 -33 3 0 6 -4 8 -9 5 -4 -3 -19
3 -31 14 -18 16 -25 18 -32 8 -6 -10 -8 -9 -8 2 0 12 -12 15 -51 14 -31 0 -57
5 -65 14 -8 7 -14 9 -14 3 0 -18 -36 -21 -78 -7 -48 17 -165 30 -158 17 10
-15 -28 -7 -41 9 -10 13 -12 12 -8 -7 2 -12 -5 -29 -16 -39 -10 -9 -19 -14
-19 -11 0 4 -10 3 -22 -2 -15 -6 -32 -4 -50 5 -16 8 -28 16 -28 17 0 6 47 0
57 -6 7 -4 15 -3 18 3 5 8 11 8 20 0 9 -7 16 -6 24 4 9 11 7 15 -11 21 -32 11
-70 8 -78 -6 -5 -7 -9 -5 -13 6 -4 9 -3 14 1 11 4 -2 14 0 22 5 12 7 11 8 -5
6 -11 -1 -25 -6 -31 -10 -15 -9 -24 2 -16 21 5 14 3 14 -13 -2 -18 -18 -19
-18 -32 0 -12 17 -13 17 -13 0 0 -10 -4 -14 -12 -10 -7 4 -8 3 -4 -4 4 -6 14
-8 24 -5 15 6 15 5 3 -10 -8 -11 -18 -14 -25 -8 -6 4 -20 6 -31 4 -32 -7 -65
-4 -83 8 -14 9 -14 10 6 6 13 -3 20 -1 16 5 -4 6 2 8 17 3 28 -9 24 -3 -10 15
-15 8 -21 8 -17 1 12 -19 -6 -12 -31 11 -20 19 -23 19 -17 5 6 -17 3 -17 -32
2 -21 12 -40 17 -42 12 -2 -6 -12 -7 -27 -1 -12 5 -25 7 -26 5 -10 -8 -98 -14
-103 -6 -4 5 -22 5 -46 0 -38 -9 -81 -5 -105 10 -5 3 -16 6 -23 7 -8 2 -20 11
-29 21 -8 10 -12 12 -8 6 7 -14 -7 -18 -19 -6 -7 8 -32 10 -208 16 -56 2 -102
8 -111 15 -12 10 -16 10 -20 -2 -4 -10 -1 -13 7 -10 7 3 13 -2 13 -10 0 -8 -8
-14 -18 -13 -10 1 -17 4 -17 7 2 21 -6 28 -37 32 -19 2 -37 -1 -39 -7 -2 -5
-5 -1 -6 10 -1 19 -1 19 -11 2 -6 -9 -14 -15 -19 -12 -5 3 -29 8 -54 11 -33 3
-46 1 -46 -7 0 -7 -7 -4 -15 7 -8 10 -15 14 -15 8z m19 -68 c12 -8 13 -8 7 2
-5 8 0 12 13 12 12 0 21 -7 21 -15 0 -12 -9 -15 -38 -14 -21 2 -43 0 -49 -4
-7 -4 -14 -3 -18 3 -4 6 -12 7 -18 3 -8 -5 -8 -2 1 9 15 18 61 21 81 4z m1021
-75 c0 -13 -38 -10 -43 3 -4 9 2 11 19 8 13 -2 24 -7 24 -11z m30 -11 c0 -5
-2 -10 -4 -10 -3 0 -8 5 -11 10 -3 6 -1 10 4 10 6 0 11 -4 11 -10z m430 -31
c0 -7 -18 -7 -48 0 -2 1 -1 5 2 10 7 11 46 2 46 -10z m153 -22 c-3 -5 -15 -7
-26 -5 -12 1 -28 -1 -34 -5 -8 -5 -13 -3 -13 7 0 12 10 15 39 13 22 -1 37 -6
34 -10z m88 -12 c5 4 17 2 26 -4 17 -9 17 -10 0 -16 -19 -8 -47 10 -46 29 0 7
2 6 6 -2 2 -6 9 -10 14 -7z m109 -17 c0 -9 4 -8 10 2 5 8 10 12 10 8 0 -3 3
-14 6 -23 5 -12 2 -16 -12 -13 -27 4 -48 38 -24 38 6 0 10 -6 10 -12z m-22
-23 c-3 -3 -9 2 -12 12 -6 14 -5 15 5 6 7 -7 10 -15 7 -18z m-23 5 c3 -6 -1
-7 -9 -4 -18 7 -21 14 -7 14 6 0 13 -4 16 -10z m-4045 -484 c0 -7 -9 -16 -20
-19 -11 -3 -20 -1 -20 4 0 5 7 9 15 9 8 0 15 5 15 10 0 6 2 10 5 10 3 0 5 -6
5 -14z m-464 -97 c3 -5 -6 -5 -20 1 -20 7 -27 6 -35 -8 -6 -9 -11 -14 -11 -9
0 4 -14 0 -30 -8 -17 -9 -28 -20 -24 -26 7 -11 -45 -63 -54 -54 -4 3 -2 9 4
13 16 11 17 72 1 72 -8 0 -12 -11 -11 -29 1 -21 -2 -28 -11 -25 -18 7 -30 -15
-16 -29 8 -8 11 -7 11 3 0 7 3 10 6 7 11 -11 -17 -36 -33 -30 -12 5 -12 7 -1
14 10 7 9 9 -3 9 -9 0 -19 -7 -22 -15 -4 -8 -23 -25 -44 -39 -21 -13 -50 -36
-65 -50 -31 -30 -43 -33 -34 -10 5 14 4 15 -8 5 -11 -9 -16 -9 -22 1 -4 7 -4
10 1 6 7 -7 33 13 38 29 5 18 104 103 119 103 19 0 41 33 30 45 -4 3 -2 6 3 4
6 -1 23 3 39 10 24 10 30 9 42 -6 8 -11 13 -13 14 -5 0 6 7 12 16 12 8 0 13 4
10 9 -4 5 5 8 18 7 14 -2 30 0 36 4 14 9 48 2 56 -11z m152 -23 c-15 -16 -48
-18 -48 -3 0 7 -4 6 -10 -3 -5 -8 -10 -11 -10 -6 0 5 -7 3 -15 -4 -12 -10 -15
-9 -15 4 0 10 5 14 10 11 6 -3 10 -3 10 2 0 4 20 9 44 10 35 1 42 -2 34 -11z
m-108 -22 c0 -8 -5 -12 -10 -9 -6 4 -8 11 -5 16 9 14 15 11 15 -7z m-492 -218
c-7 -8 -16 -12 -21 -9 -11 7 2 23 19 23 12 0 12 -2 2 -14z m204 -18 c-7 -7
-12 -8 -12 -2 0 14 12 26 19 19 2 -3 -1 -11 -7 -17z m-223 -14 c4 3 8 -1 8 -8
0 -8 -6 -13 -13 -12 -20 3 -27 13 -18 27 6 10 9 10 12 1 2 -7 7 -10 11 -8z
m-28 -47 c-13 -13 -26 -3 -16 12 3 6 11 8 17 5 6 -4 6 -10 -1 -17z m-171 -82
c5 3 14 -3 20 -14 11 -22 5 -28 -25 -27 -13 1 -20 8 -21 21 0 25 8 43 14 27 2
-7 8 -10 12 -7z m-516 -80 c33 -9 87 -28 120 -43 34 -15 66 -26 73 -24 7 2 13
-6 13 -18 0 -12 4 -19 8 -16 5 3 8 -5 7 -17 -1 -12 -6 -22 -11 -22 -16 -1 -50
-24 -35 -25 11 0 11 -3 0 -17 -12 -14 -12 -15 0 -9 9 6 8 0 -4 -17 -11 -18
-13 -27 -5 -32 8 -5 5 -12 -7 -22 -10 -8 -11 -11 -3 -7 13 7 13 5 2 -8 -15
-19 -51 -27 -77 -18 -11 4 -34 4 -52 -1 -18 -4 -36 -3 -39 2 -3 5 -14 9 -25 9
-13 0 -20 6 -18 18 1 9 1 26 0 37 l-2 20 -15 -20 c-10 -13 -14 -15 -12 -5 1 8
-9 31 -25 51 -15 20 -27 41 -27 47 0 7 -5 12 -12 12 -6 0 -9 3 -5 6 3 3 -1 24
-9 46 -20 59 -18 75 14 86 32 10 65 7 146 -13z m441 -45 c-3 -5 -13 -10 -21
-10 -8 0 -12 5 -9 10 3 6 13 10 21 10 8 0 12 -4 9 -10z m68 -22 c-17 -32 -18
-32 -21 -9 -2 13 2 28 10 32 25 16 28 9 11 -23z m-174 -82 c9 -10 9 -16 1 -21
-6 -4 -10 -14 -9 -23 3 -35 -2 -48 -22 -60 -12 -8 -18 -9 -14 -3 3 6 2 11 -3
11 -12 0 -10 43 3 52 6 5 4 8 -4 8 -11 0 -10 4 4 13 10 8 15 19 11 25 -10 17
19 15 33 -2z m-95 -12 c3 -8 2 -13 -3 -10 -5 3 -12 -10 -15 -29 -4 -19 -11
-35 -17 -35 -6 0 -6 6 0 18 5 9 10 22 10 27 2 16 12 45 16 45 1 0 6 -7 9 -16z
m-634 -290 c0 -8 4 -14 9 -14 5 0 8 -7 7 -15 -3 -19 -16 -32 -16 -16 0 7 -4
10 -9 6 -5 -3 -13 0 -17 6 -4 7 -3 9 4 5 6 -3 13 -2 17 4 3 5 2 10 -2 10 -5 0
-9 9 -10 20 -1 11 2 18 8 15 5 -4 9 -13 9 -21z m217 -63 c7 7 12 6 16 -5 3 -8
2 -18 -4 -21 -5 -4 -7 -10 -4 -15 5 -8 -21 -8 -28 1 -2 2 -7 20 -10 39 -6 32
-6 33 6 12 9 -16 16 -19 24 -11z m-52 -43 c13 -16 13 -18 -1 -18 -9 0 -18 9
-21 20 -3 11 -9 18 -13 15 -12 -8 -23 13 -14 27 5 7 11 5 21 -8 7 -10 20 -27
28 -36z m100 -16 c-3 -3 -11 0 -18 7 -9 10 -8 11 6 5 10 -3 15 -9 12 -12z
m-45 -93 c0 -11 -27 -12 -34 0 -3 4 -3 11 0 14 8 8 34 -3 34 -14z m52 -83 c3
2 8 -7 10 -21 l5 -25 -21 22 c-12 13 -22 29 -22 37 -1 10 2 10 11 -3 7 -8 14
-13 17 -10z m-72 -26 c0 -5 -5 -10 -11 -10 -5 0 -7 5 -4 10 3 6 8 10 11 10 2
0 4 -4 4 -10z m35 -40 c3 -5 1 -10 -4 -10 -6 0 -11 5 -11 10 0 6 2 10 4 10 3
0 8 -4 11 -10z m-10 -28 c-3 -3 -11 0 -18 7 -9 10 -8 11 6 5 10 -3 15 -9 12
-12z m35 -27 c14 -19 14 -19 -2 -6 -10 7 -18 18 -18 24 0 6 1 8 3 6 1 -2 9
-13 17 -24z m55 -85 c3 -5 1 -10 -4 -10 -6 0 -11 5 -11 10 0 6 2 10 4 10 3 0
8 -4 11 -10z m-141 -139 c16 -17 15 -19 -15 -25 -17 -3 -35 -3 -40 0 -5 3 -6
-2 -3 -10 9 -24 -3 -47 -21 -40 -22 9 -18 40 7 58 12 9 18 16 13 16 -13 0 17
20 31 20 6 0 19 -8 28 -19z m-22 -93 c-7 -7 -12 -8 -12 -2 0 14 12 26 19 19 2
-3 -1 -11 -7 -17z m-62 2 c0 -5 -2 -10 -4 -10 -3 0 -8 5 -11 10 -3 6 -1 10 4
10 6 0 11 -4 11 -10z m9090 -242 c0 -5 5 -6 10 -3 6 4 9 1 8 -6 -2 -7 2 -13 7
-14 6 0 19 -6 30 -13 l20 -12 -20 3 c-11 2 -30 8 -41 15 -12 6 -25 8 -29 4 -5
-4 -6 0 -2 9 3 9 0 22 -6 28 -9 9 -8 11 6 6 9 -4 17 -11 17 -17z m-9358 -15
c-6 -2 -10 -8 -7 -13 3 -5 -4 -11 -15 -15 -11 -4 -18 -11 -14 -16 3 -5 1 -8
-5 -7 -5 2 -17 -6 -25 -17 -8 -11 -16 -15 -16 -9 0 6 7 17 15 24 18 15 20 35
3 24 -7 -4 -8 -3 -4 5 4 6 12 9 17 6 5 -4 9 -2 9 4 0 5 8 12 18 14 24 6 40 7
24 0z m9418 -143 c3 -1 8 -2 12 -2 3 1 9 -5 12 -13 3 -9 -1 -15 -10 -15 -8 0
-17 7 -20 15 -5 12 -10 13 -20 4 -11 -9 -14 -8 -14 4 0 13 16 16 40 7z m-9634
-68 c8 -5 3 -15 -15 -32 -29 -28 -65 -37 -77 -19 -4 8 -3 9 5 5 6 -4 22 5 37
23 27 33 32 35 50 23z m9679 -71 c10 -17 -15 -23 -30 -7 -22 22 -19 39 4 26
11 -5 22 -14 26 -19z m135 -10 c0 -4 -6 -8 -14 -8 -8 0 -12 6 -9 14 5 13 23 9
23 -6z m-9782 -12 c-4 -17 -42 -56 -50 -52 -13 7 -9 23 5 23 7 0 18 9 25 20
13 22 23 26 20 9z m-164 -39 c-6 -6 -15 -5 -24 1 -13 9 -12 10 3 5 9 -3 17 0
17 6 0 6 3 8 7 5 4 -4 2 -12 -3 -17z m-44 1 c0 -5 -7 -12 -16 -15 -14 -5 -15
-4 -4 9 14 17 20 19 20 6z m9930 -61 c0 -5 -4 -10 -9 -10 -6 0 -13 5 -16 10
-3 6 1 10 9 10 9 0 16 -4 16 -10z m77 -72 c-16 -10 -21 -2 -13 19 6 15 9 15
16 3 6 -9 5 -17 -3 -22z m123 -23 c0 -5 -5 -3 -10 5 -5 8 -10 20 -10 25 0 6 5
3 10 -5 5 -8 10 -19 10 -25z m-96 8 c3 -4 14 -8 23 -9 9 -2 20 -10 25 -18 5
-9 15 -16 23 -16 8 0 16 -4 20 -9 3 -6 -4 -8 -17 -5 -13 3 -34 7 -48 10 -13 3
-27 10 -31 15 -3 6 -10 11 -15 11 -5 1 -18 3 -28 6 -20 5 -20 5 0 13 25 10 39
11 48 2z m-10124 -23 c0 -5 -4 -10 -10 -10 -5 0 -10 5 -10 10 0 6 5 10 10 10
6 0 10 -4 10 -10z m10237 -12 c2 -17 0 -19 -7 -8 -5 8 -6 18 -4 22 8 12 10 10
11 -14z m-10262 -209 c-28 -40 -55 -45 -33 -6 7 12 11 25 10 30 -1 4 3 7 10 7
6 0 9 3 6 6 -4 3 1 13 10 23 30 30 27 -15 -3 -60z m-250 -179 c-3 -5 -12 -10
-18 -10 -7 0 -6 4 3 10 19 12 23 12 15 0z m155 -153 c0 -2 -10 -12 -22 -23
-14 -12 -18 -13 -10 -3 6 9 9 19 5 22 -3 4 1 7 10 7 10 0 17 -2 17 -3z m10600
-39 c0 -26 -9 -19 -15 11 -2 12 0 19 6 16 5 -4 9 -16 9 -27z m-11038 -253 c-5
-30 -18 -40 -28 -24 -4 8 -3 9 4 5 7 -4 12 -2 12 3 0 6 -5 11 -10 11 -7 0 -7
7 0 20 14 27 29 17 22 -15z m223 -206 c-2 -28 -11 -62 -20 -75 -19 -29 -30
-32 -15 -3 6 11 9 25 7 32 -2 7 2 29 9 51 8 21 11 43 7 49 -3 6 -1 7 5 3 7 -4
10 -27 7 -57z m10893 -194 c-3 -3 -9 2 -12 12 -6 14 -5 15 5 6 7 -7 10 -15 7
-18z m-11186 -407 c-7 -7 -8 -17 -2 -29 10 -18 9 -54 -2 -64 -3 -3 -5 7 -3 24
1 16 -1 35 -5 42 -10 15 -2 39 13 39 8 0 7 -4 -1 -12z m105 -779 c-12 -10 -17
-18 -11 -19 5 0 15 5 21 11 7 7 12 5 17 -8 4 -9 4 -14 0 -10 -9 8 -36 -12 -29
-22 2 -4 -2 -8 -10 -8 -8 0 -15 4 -15 9 0 4 5 8 11 8 8 0 8 4 0 14 -9 10 -8
16 4 26 9 7 13 20 10 28 -4 12 -3 13 10 2 13 -11 12 -14 -8 -31z m10653 -1059
c0 -5 -5 -10 -11 -10 -5 0 -7 5 -4 10 3 6 8 10 11 10 2 0 4 -4 4 -10z m-2215
-5800 c3 -5 1 -10 -4 -10 -6 0 -11 5 -11 10 0 6 2 10 4 10 3 0 8 -4 11 -10z
m99 1 c7 -11 -14 -20 -31 -13 -7 2 -10 8 -7 13 7 12 31 12 38 0z"/>
<path d="M9996 19137 c3 -10 9 -15 12 -12 3 3 0 11 -7 18 -10 9 -11 8 -5 -6z"/>
<path d="M9800 19136 c0 -2 7 -7 16 -10 8 -3 12 -2 9 4 -6 10 -25 14 -25 6z"/>
<path d="M9731 19121 c-8 -5 -21 -6 -30 -3 -13 5 -13 4 -1 -9 12 -14 16 -14
32 0 25 22 25 28 -1 12z"/>
<path d="M10870 19111 c0 -6 5 -13 10 -16 6 -3 10 1 10 9 0 9 -4 16 -10 16 -5
0 -10 -4 -10 -9z"/>
<path d="M10905 19102 c1 -12 10 -16 30 -15 16 1 35 -3 44 -10 12 -10 13 -9 6
2 -6 11 -4 13 9 8 11 -5 15 -3 10 5 -5 8 -2 9 9 5 10 -3 17 -2 17 3 0 16 -35
16 -48 0 -11 -13 -12 -13 -7 0 4 12 -3 16 -34 17 -32 2 -39 -1 -36 -15z"/>
<path d="M9570 19085 c0 -8 4 -15 10 -15 5 0 7 7 4 15 -4 8 -8 15 -10 15 -2 0
-4 -7 -4 -15z"/>
<path d="M9517 19079 c-9 -5 -22 -7 -27 -4 -6 4 -9 1 -8 -7 2 -7 -4 -12 -12
-10 -8 2 -12 0 -7 -4 10 -10 46 -13 44 -3 -1 4 7 15 18 23 23 18 19 20 -8 5z"/>
<path d="M8748 18783 c7 -3 16 -2 19 1 4 3 -2 6 -13 5 -11 0 -14 -3 -6 -6z"/>
<path d="M8495 18681 c-3 -5 -2 -12 3 -15 5 -3 9 1 9 9 0 17 -3 19 -12 6z"/>
<path d="M8190 18600 c0 -5 5 -10 11 -10 5 0 7 5 4 10 -3 6 -8 10 -11 10 -2 0
-4 -4 -4 -10z"/>
<path d="M8130 18559 c0 -5 5 -7 10 -4 6 3 10 8 10 11 0 2 -4 4 -10 4 -5 0
-10 -5 -10 -11z"/>
<path d="M7070 18362 c0 -6 9 -12 20 -15 11 -3 20 -3 20 -1 0 2 -9 8 -20 14
-11 6 -20 7 -20 2z"/>
<path d="M6949 18293 c-12 -14 -12 -16 0 -8 11 6 13 4 8 -9 -4 -9 -3 -15 2
-11 6 3 9 14 8 25 -2 24 -1 24 -18 3z"/>
<path d="M6875 18241 c-3 -5 -2 -12 3 -15 5 -3 9 1 9 9 0 17 -3 19 -12 6z"/>
<path d="M7110 18230 c0 -5 5 -10 11 -10 5 0 7 5 4 10 -3 6 -8 10 -11 10 -2 0
-4 -4 -4 -10z"/>
<path d="M6886 18112 c-3 -5 1 -9 9 -9 8 0 12 4 9 9 -3 4 -7 8 -9 8 -2 0 -6
-4 -9 -8z"/>
<path d="M6770 18060 c-13 -8 -12 -10 3 -10 9 0 17 5 17 10 0 12 -1 12 -20 0z"/>
<path d="M6635 17970 c-3 -5 -1 -10 4 -10 6 0 11 5 11 10 0 6 -2 10 -4 10 -3
0 -8 -4 -11 -10z"/>
<path d="M5985 17609 c-4 -6 -5 -12 -2 -15 2 -3 7 2 10 11 7 17 1 20 -8 4z"/>
<path d="M6005 17590 c-4 -6 5 -9 19 -8 15 1 26 6 26 10 0 12 -38 10 -45 -2z"/>
<path d="M6076 17577 c3 -10 9 -15 12 -12 3 3 0 11 -7 18 -10 9 -11 8 -5 -6z"/>
<path d="M5920 17440 c-9 -6 -10 -10 -3 -10 6 0 15 5 18 10 8 12 4 12 -15 0z"/>
<path d="M5787 17136 c-13 -10 -15 -16 -7 -21 7 -4 10 -18 7 -31 -4 -20 -2
-22 16 -13 13 8 16 14 9 21 -6 6 -8 17 -5 24 4 12 8 12 22 2 11 -8 10 -5 -3
10 -11 12 -20 22 -20 22 -1 0 -9 -7 -19 -14z"/>
<path d="M6010 17105 c-7 -9 -11 -17 -9 -20 3 -2 10 5 17 15 14 24 10 26 -8 5z"/>
<path d="M15033 17002 c-7 -4 -9 -13 -5 -19 5 -8 11 -7 19 3 14 15 3 27 -14
16z"/>
<path d="M15006 16971 c-4 -5 4 -15 16 -22 22 -12 22 -11 8 7 -8 10 -15 20
-16 22 -1 2 -5 -1 -8 -7z"/>
<path d="M15066 16879 c3 -5 -4 -17 -16 -29 -16 -16 -17 -20 -4 -20 9 0 13 -5
9 -12 -4 -7 2 -3 13 9 11 12 23 19 27 15 4 -4 3 3 -3 14 -6 12 -9 23 -7 26 3
3 -2 5 -10 5 -8 0 -12 -4 -9 -8z"/>
<path d="M5868 16853 c7 -3 16 -2 19 1 4 3 -2 6 -13 5 -11 0 -14 -3 -6 -6z"/>
<path d="M5980 16839 c0 -5 -6 -7 -12 -3 -7 4 -9 3 -5 -1 13 -15 34 -14 34 1
0 8 -4 14 -9 14 -4 0 -8 -5 -8 -11z"/>
<path d="M15121 16821 c-1 -7 -7 -11 -16 -7 -8 3 -15 1 -15 -5 0 -6 -4 -8 -8
-5 -5 3 -9 -1 -9 -8 0 -8 6 -12 14 -9 7 3 26 -9 43 -27 16 -18 30 -29 30 -25
0 4 8 1 18 -6 9 -7 14 -9 10 -5 -4 5 0 15 9 21 15 11 15 13 -5 19 -12 4 -22
16 -22 26 0 23 -16 35 -26 18 -5 -8 -10 -6 -15 8 -4 10 -8 13 -8 5z"/>
<path d="M5776 16793 c-7 -7 49 -63 64 -63 13 0 13 -1 0 -10 -8 -5 -10 -10 -4
-10 6 0 17 7 24 15 9 10 9 15 1 15 -13 0 -51 36 -51 48 0 9 -26 12 -34 5z"/>
<path d="M5913 16775 c0 -8 4 -12 9 -9 4 3 8 9 8 15 0 5 -4 9 -8 9 -5 0 -9 -7
-9 -15z"/>
<path d="M5936 16771 c-4 -7 -5 -15 -2 -18 9 -9 19 4 14 18 -4 11 -6 11 -12 0z"/>
<path d="M5960 16760 c0 -5 5 -10 11 -10 5 0 7 -6 3 -12 -4 -7 -4 -10 1 -6 4
4 13 3 20 -2 8 -7 12 -5 12 5 0 8 -4 12 -9 9 -4 -3 -11 2 -14 10 -7 18 -24 22
-24 6z"/>
<path d="M15149 16667 c6 -8 7 -18 3 -22 -4 -5 -1 -5 6 -1 10 6 10 11 1 22 -6
8 -14 14 -16 14 -3 0 0 -6 6 -13z"/>
<path d="M15188 16653 c7 -3 16 -2 19 1 4 3 -2 6 -13 5 -11 0 -14 -3 -6 -6z"/>
<path d="M15347 16340 c3 -11 10 -17 16 -13 6 4 8 0 4 -11 -4 -11 -3 -15 4
-11 6 4 17 -1 24 -11 8 -11 15 -15 15 -10 0 5 7 3 15 -4 11 -9 15 -9 15 -1 0
6 -11 16 -25 23 -13 6 -22 15 -19 19 3 5 0 9 -6 9 -6 0 -9 4 -6 9 3 5 -1 12
-10 15 -26 10 -32 7 -27 -14z"/>
<path d="M5580 16280 c0 -6 7 -10 15 -10 8 0 15 2 15 4 0 2 -7 6 -15 10 -8 3
-15 1 -15 -4z"/>
<path d="M15460 16270 c-1 -3 -4 -18 -6 -35 -3 -25 -2 -27 7 -12 6 10 8 25 6
35 -3 9 -6 15 -7 12z"/>
<path d="M15312 16161 c-9 -5 -9 -11 1 -24 6 -9 17 -13 24 -9 8 5 8 11 -1 24
-7 9 -17 13 -24 9z"/>
<path d="M5375 16140 c-3 -5 -1 -10 4 -10 6 0 11 5 11 10 0 6 -2 10 -4 10 -3
0 -8 -4 -11 -10z"/>
<path d="M5195 15810 c-3 -5 -3 -10 0 -10 3 0 -5 -11 -19 -24 -15 -13 -26 -31
-26 -40 0 -26 17 -18 30 14 7 17 19 30 27 30 12 0 13 3 4 14 -9 11 -9 15 1 19
9 4 9 6 1 6 -6 1 -15 -3 -18 -9z"/>
<path d="M5120 15720 c-13 -8 -13 -11 0 -24 12 -12 17 -12 27 -1 16 18 -6 38
-27 25z"/>
<path d="M4796 15213 c-6 -14 -5 -15 5 -6 7 7 10 15 7 18 -3 3 -9 -2 -12 -12z"/>
<path d="M4896 15205 c-3 -8 -1 -15 5 -15 6 0 7 -5 3 -12 -4 -6 -3 -8 4 -5 5
4 8 16 5 27 -6 24 -9 25 -17 5z"/>
<path d="M4895 15140 c-3 -5 -1 -10 4 -10 6 0 11 5 11 10 0 6 -2 10 -4 10 -3
0 -8 -4 -11 -10z"/>
<path d="M4846 15127 c3 -10 9 -15 12 -12 3 3 0 11 -7 18 -10 9 -11 8 -5 -6z"/>
<path d="M4810 15073 c0 -13 -4 -23 -10 -23 -5 0 -10 -4 -10 -10 0 -16 14 -12
27 8 7 12 8 24 2 33 -7 11 -9 9 -9 -8z"/>
<path d="M15396 13552 c-3 -4 4 -9 15 -9 23 -2 25 3 4 10 -8 4 -16 3 -19 -1z"/>
<path d="M15370 13480 c0 -5 5 -10 10 -10 6 0 10 5 10 10 0 6 -4 10 -10 10 -5
0 -10 -4 -10 -10z"/>
<path d="M4773 13283 c-7 -3 -13 -9 -13 -14 0 -6 4 -8 9 -5 5 4 11 2 13 -4 2
-6 8 -2 15 8 11 19 4 24 -24 15z"/>
<path d="M4755 13242 c14 -10 18 -42 5 -42 -6 0 -8 -5 -3 -12 10 -17 15 -38
14 -66 -1 -13 4 -20 9 -17 6 3 10 1 10 -4 0 -6 -4 -11 -10 -11 -16 0 -12 -57
5 -64 8 -3 12 -12 9 -21 -4 -10 0 -15 15 -15 12 0 21 5 21 11 0 6 -7 8 -16 5
-14 -6 -15 -4 -4 9 7 9 9 15 4 14 -20 -4 -28 2 -15 10 13 8 13 12 0 27 -8 10
-9 15 -4 12 15 -9 16 63 2 81 -7 8 -7 12 -1 8 6 -3 11 0 11 8 0 8 -5 11 -10 8
-6 -4 -8 0 -4 10 4 10 2 17 -4 17 -6 0 -9 6 -6 14 3 8 -1 17 -9 20 -21 8 -31
7 -19 -2z"/>
<path d="M15270 12959 c0 -5 5 -7 10 -4 6 3 10 8 10 11 0 2 -4 4 -10 4 -5 0
-10 -5 -10 -11z"/>
<path d="M5725 8889 c-11 -16 -1 -19 13 -3 7 8 8 14 3 14 -5 0 -13 -5 -16 -11z"/>
<path d="M5715 8570 c-3 -6 1 -7 9 -4 18 7 21 14 7 14 -6 0 -13 -4 -16 -10z"/>
<path d="M12780 6600 c0 -5 5 -10 11 -10 5 0 7 5 4 10 -3 6 -8 10 -11 10 -2 0
-4 -4 -4 -10z"/>
<path d="M12596 6581 c-3 -5 2 -15 12 -22 15 -12 16 -12 5 2 -7 9 -10 19 -6
22 3 4 4 7 0 7 -3 0 -8 -4 -11 -9z"/>
<path d="M13033 6574 c0 -7 7 -10 15 -6 11 4 13 1 7 -8 -5 -8 -4 -11 3 -6 6 4
9 12 6 20 -6 16 -31 17 -31 0z"/>
<path d="M13093 6572 c-9 -5 -6 -12 10 -21 19 -13 21 -12 10 1 -7 8 -10 18 -6
21 9 9 1 8 -14 -1z"/>
<path d="M12750 6556 c0 -2 8 -10 18 -17 15 -13 16 -12 3 4 -13 16 -21 21 -21
13z"/>
<path d="M12896 6541 c-3 -5 1 -11 9 -14 9 -4 12 -1 8 9 -6 16 -10 17 -17 5z"/>
<path d="M12706 6518 c3 -5 10 -6 15 -3 13 9 11 12 -6 12 -8 0 -12 -4 -9 -9z"/>
<path d="M13515 6451 c-3 -5 -2 -12 3 -15 5 -3 9 1 9 9 0 17 -3 19 -12 6z"/>
</g>
</svg>
